<svg width="150" height="155" viewBox="0 0 150 155" fill="none" xmlns="http://www.w3.org/2000/svg">
<path d="M39.0933 6.8563C40.3836 8.13415 41.743 9.33682 43.255 10.3423C50.9676 15.4722 73.915 27.8153 110.31 22.7708C155.784 16.4679 149.113 62.1899 142.57 74.3756C136.026 86.5613 111.961 108.9 109.94 120.092C107.918 131.284 116.568 161.854 96.3018 152.681C76.036 143.507 64.3286 122.022 37.7281 124.52C11.1276 127.017 -7.66893 115.229 4.10608 94.1692C15.8811 73.1092 29.9591 59.5192 11.9902 36.0609C-5.47979 13.2551 23.9467 -8.14442 39.0933 6.8563Z" fill="#DAE8F2"/>
<path d="M85.236 30.4825C84.8988 30.1429 84.7058 29.6862 84.6975 29.2077C84.6892 28.7292 84.8662 28.2661 85.1914 27.915L97.1902 14.9643C97.3602 14.7809 97.5655 14.6337 97.7937 14.5316C98.022 14.4296 98.2686 14.3747 98.5186 14.3704C98.7687 14.3661 99.017 14.4123 99.2487 14.5064C99.4804 14.6005 99.6906 14.7405 99.8669 14.9179L100.903 15.961C101.079 16.1384 101.217 16.3497 101.31 16.582C101.402 16.8144 101.447 17.0631 101.441 17.3131C101.435 17.5631 101.378 17.8092 101.274 18.0368C101.171 18.2644 101.022 18.4687 100.837 18.6373L87.8032 30.545C87.4499 30.8678 86.9855 31.0416 86.507 31.0299C86.0286 31.0183 85.5732 30.8221 85.236 30.4825Z" fill="#003B65"/>
<path d="M77.6413 26.0679C77.3545 25.9408 77.1279 25.7077 77.0088 25.4174C76.8898 25.127 76.8876 24.802 77.0027 24.5101L81.2491 13.7407C81.3092 13.5882 81.3996 13.4494 81.5148 13.3327C81.6299 13.216 81.7675 13.1237 81.9192 13.0616C82.071 12.9994 82.2337 12.9685 82.3977 12.9708C82.5616 12.9731 82.7234 13.0086 82.8733 13.075L83.7545 13.4656C83.9044 13.5321 84.0393 13.6281 84.1511 13.7481C84.263 13.868 84.3494 14.0093 84.4052 14.1635C84.461 14.3176 84.4851 14.4815 84.476 14.6452C84.4668 14.8089 84.4247 14.9691 84.352 15.1161L79.2249 25.4948C79.0859 25.7762 78.8435 25.993 78.5483 26.0998C78.2532 26.2066 77.9282 26.1952 77.6413 26.0679Z" fill="#003B65"/>
<path d="M69.9145 27.8284C68.9359 28.0046 67.9542 27.1649 67.6885 25.925L62.9791 3.90818C62.6981 2.59243 63.3281 1.34104 64.3662 1.15393L65.8129 0.893531C66.851 0.706631 67.8785 1.66003 68.0735 2.99091L71.3366 25.268C71.5204 26.5231 70.8931 27.6522 69.9145 27.8284Z" fill="#003B65"/>
<path d="M146.034 48.5486L125.264 45.8711C124.914 45.8337 124.561 45.9039 124.252 46.0722C123.944 46.2406 123.693 46.4991 123.535 46.8132L118.012 57.7184L94.8932 103.956C94.6474 104.445 94.2358 104.829 93.7319 105.042C93.2281 105.254 92.6651 105.28 92.1439 105.115L29.3912 85.0844C29.2181 85.0292 29.0344 85.0158 28.8551 85.0454C28.6759 85.0751 28.5062 85.1468 28.3601 85.2548C28.214 85.3628 28.0956 85.5039 28.0147 85.6666C27.9338 85.8293 27.8926 86.0088 27.8947 86.1905L27.9234 88.7964C27.9269 89.1587 28.0447 89.5107 28.2599 89.8022C28.4751 90.0936 28.7768 90.3098 29.122 90.4198L95.516 111.612C96.2562 111.848 96.9207 112.276 97.4423 112.851C97.9639 113.427 98.3241 114.131 98.4863 114.891L98.5084 114.994C99.0859 118.167 95.9598 120.771 92.879 119.836L20.0757 96.5678C19.7023 96.449 19.3806 96.2063 19.1639 95.8797C18.9472 95.5532 18.8485 95.1625 18.8841 94.7723L24.5818 32.5526C24.6104 32.2318 24.7062 31.9207 24.8629 31.6393C25.0197 31.3579 25.2338 31.1126 25.4915 30.9194C25.7491 30.7261 26.0445 30.5892 26.3585 30.5176C26.6725 30.4459 26.9981 30.4411 27.3141 30.5034L114.531 47.5651L120.149 36.4011C120.311 36.0856 120.566 35.8274 120.879 35.6615C121.193 35.4956 121.55 35.4298 121.902 35.4731L147.337 38.7302C147.562 38.7586 147.78 38.8314 147.977 38.9445C148.175 39.0575 148.348 39.2086 148.486 39.389C148.625 39.5693 148.726 39.7753 148.784 39.9951C148.843 40.2149 148.857 40.4441 148.826 40.6694L147.959 47.0668C147.899 47.5179 147.663 47.9268 147.302 48.2044C146.941 48.4821 146.486 48.6058 146.034 48.5486Z" fill="#003B65"/>
<path d="M28.0996 74.4317L35.2064 76.7001L42.0236 42.1313L31.1132 40.4561L28.0996 74.4317Z" fill="#DAE8F2"/>
<path d="M83.8594 92.2297L90.9662 94.4981L109.345 55.7888L101.517 53.8926L83.8594 92.2297Z" fill="#DAE8F2"/>
<path d="M56.5254 83.5055L63.0856 85.5994L77.1376 49.1233L66.4018 46.9014L56.5254 83.5055Z" fill="#DAE8F2"/>
<path d="M48.2108 43.5039L58.9466 45.7258L49.4192 81.2367L42.3125 78.9683L48.2108 43.5039Z" fill="#DAE8F2"/>
<path d="M94.7838 52.3451L84.0479 50.123L70.7402 88.0414L77.3004 90.1353L94.7838 52.3451Z" fill="#DAE8F2"/>
<path d="M29.4693 119.031C34.0647 119.031 37.7901 115.306 37.7901 110.71C37.7901 106.115 34.0647 102.39 29.4693 102.39C24.8738 102.39 21.1484 106.115 21.1484 110.71C21.1484 115.306 24.8738 119.031 29.4693 119.031Z" fill="#003B65"/>
<path d="M81.4048 135.607C86.0003 135.607 89.7257 131.882 89.7257 127.287C89.7257 122.691 86.0003 118.966 81.4048 118.966C76.8093 118.966 73.084 122.691 73.084 127.287C73.084 131.882 76.8093 135.607 81.4048 135.607Z" fill="#003B65"/>
<path d="M149.77 38.3861L127.849 35.6418C127.727 35.6266 127.617 35.7128 127.601 35.8343L126.273 46.4472C126.257 46.5687 126.344 46.6796 126.465 46.6948L148.386 49.4391C148.507 49.4543 148.618 49.3681 148.633 49.2466L149.962 38.6337C149.977 38.5122 149.891 38.4014 149.77 38.3861Z" fill="#003B65"/>
</svg>
