<svg width="86" height="86" viewBox="0 0 86 86" fill="none" xmlns="http://www.w3.org/2000/svg">
<path d="M39.1994 43L31.5991 35.3998C31.1096 34.8929 30.8387 34.214 30.8448 33.5094C30.851 32.8047 31.1336 32.1307 31.6319 31.6324C32.1302 31.1341 32.8042 30.8515 33.5089 30.8453C34.2135 30.8392 34.8924 31.1101 35.3993 31.5996L42.9995 39.1999L50.5998 31.5996C50.8477 31.343 51.1442 31.1382 51.4721 30.9974C51.8 30.8565 52.1527 30.7824 52.5095 30.7793C52.8663 30.7762 53.2202 30.8442 53.5505 30.9793C53.8808 31.1144 54.1809 31.314 54.4332 31.5663C54.6855 31.8187 54.8851 32.1187 55.0202 32.449C55.1554 32.7793 55.2234 33.1332 55.2203 33.49C55.2171 33.8469 55.143 34.1995 55.0022 34.5274C54.8613 34.8553 54.6566 35.1518 54.3999 35.3998L46.7996 43L54.3999 50.6003C54.6566 50.8482 54.8613 51.1447 55.0022 51.4726C55.143 51.8005 55.2171 52.1532 55.2203 52.51C55.2234 52.8668 55.1554 53.2207 55.0202 53.551C54.8851 53.8813 54.6855 54.1814 54.4332 54.4337C54.1809 54.686 53.8808 54.8856 53.5505 55.0207C53.2202 55.1559 52.8663 55.2239 52.5095 55.2208C52.1527 55.2176 51.8 55.1435 51.4721 55.0027C51.1442 54.8618 50.8477 54.6571 50.5998 54.4004L42.9995 46.8001L35.3993 54.4004C34.8924 54.8899 34.2135 55.1608 33.5089 55.1547C32.8042 55.1486 32.1302 54.8659 31.6319 54.3677C31.1336 53.8694 30.851 53.1953 30.8448 52.4907C30.8387 51.786 31.1096 51.1071 31.5991 50.6003L39.1994 43Z" fill="#F83B3B"/>
<path d="M43 75.25C47.2351 75.25 51.4288 74.4158 55.3415 72.7951C59.2543 71.1744 62.8095 68.7989 65.8042 65.8042C68.7989 62.8095 71.1744 59.2543 72.7951 55.3415C74.4158 51.4288 75.25 47.2351 75.25 43C75.25 38.7649 74.4158 34.5712 72.7951 30.6585C71.1744 26.7457 68.7989 23.1905 65.8042 20.1958C62.8095 17.2011 59.2543 14.8256 55.3415 13.2049C51.4288 11.5842 47.2351 10.75 43 10.75C34.4468 10.75 26.2439 14.1478 20.1958 20.1958C14.1478 26.2439 10.75 34.4468 10.75 43C10.75 51.5532 14.1478 59.7561 20.1958 65.8042C26.2439 71.8522 34.4468 75.25 43 75.25ZM43 80.625C33.0212 80.625 23.4512 76.6609 16.3951 69.6049C9.33905 62.5488 5.375 52.9788 5.375 43C5.375 33.0212 9.33905 23.4512 16.3951 16.3951C23.4512 9.33905 33.0212 5.375 43 5.375C52.9788 5.375 62.5488 9.33905 69.6049 16.3951C76.6609 23.4512 80.625 33.0212 80.625 43C80.625 52.9788 76.6609 62.5488 69.6049 69.6049C62.5488 76.6609 52.9788 80.625 43 80.625Z" fill="#F83B3B"/>
</svg>
