<svg width="113" height="72" viewBox="0 0 113 72" fill="none" xmlns="http://www.w3.org/2000/svg">
<g clip-path="url(#clip0_623_12245)">
<path d="M9.39326 43.8261C10.6976 43.8261 11.6106 43.3043 12.1324 42.2609C12.6541 41.2174 12.6541 40.1739 12.1324 39.1304C11.6106 38.087 10.6976 37.5652 9.39326 37.5652C8.08891 37.5652 7.17587 38.087 6.65413 39.1304C6.13239 40.1739 6.13239 41.2174 6.65413 42.2609C7.17587 43.3043 8.08891 43.8261 9.39326 43.8261ZM81.4422 40.9891C81.1161 40.5652 80.4884 39.75 79.559 38.5435C78.6297 37.337 77.953 36.4565 77.5291 35.9022C77.1052 35.3478 76.4856 34.5489 75.6704 33.5054C74.8552 32.462 74.1623 31.5978 73.5916 30.913C73.021 30.2283 72.3606 29.462 71.6106 28.6141C70.8606 27.7663 70.127 26.9674 69.4096 26.2174L63.2954 33.0652C60.5889 36.1304 57.1895 37.6304 53.0971 37.5652C49.0047 37.5 45.6541 35.9022 43.0454 32.7717C41.1867 30.5217 40.2655 27.9457 40.2818 25.0435C40.2981 22.1413 41.252 19.5815 43.1433 17.3641L51.8009 7.28804C51.0835 6.92935 50.252 6.66033 49.3063 6.48098C48.3606 6.30163 47.5862 6.2038 46.9829 6.1875C46.3797 6.1712 45.4585 6.17935 44.2193 6.21196C42.9802 6.24457 42.1813 6.26087 41.8226 6.26087C38.8226 6.26087 36.2465 7.33696 34.0943 9.48913L26.3661 17.2174H18.7846V43.8261C18.9476 43.8261 19.29 43.8179 19.8117 43.8016C20.3335 43.7853 20.6922 43.7853 20.8878 43.8016C21.0835 43.8179 21.4014 43.8505 21.8416 43.8995C22.2818 43.9484 22.6161 44.0217 22.8443 44.1196C23.0726 44.2174 23.3579 44.356 23.7003 44.5353C24.0427 44.7147 24.3443 44.9348 24.6052 45.1957L39.1324 59.4783C42.8824 63.0978 46.5835 64.9076 50.2356 64.9076C52.7791 64.9076 54.8172 64.1413 56.3498 62.6087C58.2085 63.2609 60.0427 63.1304 61.8525 62.2174C63.6623 61.3043 64.8443 59.9185 65.3987 58.0598C67.8117 58.2554 69.8824 57.538 71.6106 55.9076C72.2628 55.3207 72.8498 54.5788 73.3715 53.6821C73.8933 52.7853 74.1215 51.962 74.0563 51.212C74.3824 51.538 75.0835 51.7011 76.1596 51.7011C77.5617 51.7011 78.8172 51.3587 79.9259 50.6739C81.0346 49.9891 81.8416 49.125 82.3471 48.0815C82.8525 47.038 83.0481 45.8723 82.934 44.5842C82.8199 43.2962 82.3226 42.0978 81.4422 40.9891ZM89.2193 43.8261H93.915V18.7826H89.3661L81.6867 9.97826C79.5346 7.5 76.7791 6.26087 73.4204 6.26087H65.252C62.3498 6.26087 59.9693 7.35326 58.1106 9.53804L47.8878 21.4239C46.9748 22.5 46.5183 23.7228 46.5183 25.0924C46.5183 26.462 46.9585 27.6848 47.8389 28.7609C49.2411 30.4239 51.0346 31.2717 53.2193 31.3043C55.4041 31.337 57.2139 30.538 58.6487 28.9076L68.0889 18.2446C68.9041 17.4946 69.7764 17.144 70.7058 17.1929C71.6351 17.2418 72.4014 17.6821 73.0047 18.5136C73.6079 19.3451 73.7465 20.2663 73.4204 21.2772C73.9422 21.8967 74.8552 22.9239 76.1596 24.3587C77.4639 25.7935 78.4422 26.9022 79.0943 27.6848C80.04 28.8587 81.3851 30.5788 83.1297 32.8451C84.8742 35.1114 85.9259 36.4891 86.2846 36.9783C87.9802 39.1304 88.9585 41.413 89.2193 43.8261ZM103.306 43.8261C104.611 43.8261 105.524 43.3043 106.045 42.2609C106.567 41.2174 106.567 40.1739 106.045 39.1304C105.524 38.087 104.611 37.5652 103.306 37.5652C102.002 37.5652 101.089 38.087 100.567 39.1304C100.045 40.1739 100.045 41.2174 100.567 42.2609C101.089 43.3043 102.002 43.8261 103.306 43.8261ZM112.698 15.6522V46.9565C112.698 47.8043 112.388 48.538 111.768 49.1576C111.149 49.7772 110.415 50.087 109.567 50.087H88.3389C87.4585 52.2065 86.1215 53.9429 84.328 55.2962C82.5346 56.6495 80.4965 57.4891 78.2139 57.8152C77.1378 59.3804 75.8253 60.7092 74.2764 61.8016C72.7275 62.894 71.0563 63.6359 69.2628 64.0272C67.8933 65.7554 66.1895 67.0842 64.1514 68.0136C62.1134 68.9429 60.0183 69.3424 57.8661 69.212C55.9096 70.3206 53.8552 70.9647 51.703 71.144C49.5509 71.3234 47.4721 71.0951 45.4666 70.4592C43.4612 69.8234 41.5536 68.9511 39.7438 67.8424C37.934 66.7337 36.2465 65.413 34.6813 63.8804L20.6433 50.087H3.13239C2.28456 50.087 1.55087 49.7772 0.931301 49.1576C0.311736 48.538 0.00195312 47.8043 0.00195312 46.9565V14.087C0.00195312 13.2391 0.311736 12.5054 0.931301 11.8859C1.55087 11.2663 2.28456 10.9565 3.13239 10.9565H23.7248C24.1813 10.5 24.9476 9.71739 26.0237 8.6087C27.0998 7.5 27.8742 6.71739 28.3471 6.26087C28.8199 5.80435 29.5373 5.15217 30.4992 4.30435C31.4612 3.45652 32.2846 2.84511 32.9693 2.47011C33.6541 2.09511 34.4856 1.67935 35.4639 1.22283C36.4422 0.766304 37.453 0.44837 38.4965 0.269022C39.54 0.0896739 40.6487 0 41.8226 0H47.5454C50.7737 0 53.7248 0.913044 56.3987 2.73913C59.0726 0.913044 62.0237 0 65.252 0H73.4204C74.5617 0 75.6541 0.0978261 76.6976 0.293478C77.7411 0.48913 78.6623 0.725543 79.4612 1.00272C80.2601 1.27989 81.0998 1.71196 81.9802 2.29891C82.8606 2.88587 83.5862 3.3913 84.1568 3.81522C84.7275 4.23913 85.4286 4.88315 86.2601 5.74728C87.0916 6.61141 87.7275 7.2962 88.1677 7.80163C88.6079 8.30707 89.2764 9.08967 90.1731 10.1495C91.0699 11.2092 91.7465 12 92.203 12.5217H109.567C110.415 12.5217 111.149 12.8315 111.768 13.4511C112.388 14.0707 112.698 14.8043 112.698 15.6522Z" fill="#003B65"/>
</g>
<defs>
<clipPath id="clip0_623_12245">
<rect width="112.7" height="72" fill="white"/>
</clipPath>
</defs>
</svg>
