<svg width="90" height="90" viewBox="0 0 90 90" fill="none" xmlns="http://www.w3.org/2000/svg">
<g clip-path="url(#clip0_20_2131)">
<path d="M90 0H0V90H90V0Z" fill="#003B65"/>
<path d="M39.4677 14.6241V14.58H65.6577V14.6259L39.4677 14.6241Z" fill="#E4B935"/>
<path d="M39.4676 14.6241H65.6576C65.4596 15.5763 65.2652 16.5294 65.0627 17.4807C64.2875 21.1209 63.5099 24.7599 62.7299 28.3977C62.4149 29.8764 62.0999 31.356 61.7813 32.8329C61.7408 33.0129 61.7589 33.0768 61.9613 33.0795C62.6813 33.0903 63.4014 33.0795 64.1213 33.0516C64.4735 33.0306 64.827 33.0536 65.1735 33.12C65.8034 33.2532 65.9789 33.7077 65.6018 34.236C65.391 34.5109 65.1168 34.7307 64.8027 34.8768C64.0925 35.2431 63.3239 35.3997 62.5418 35.5014C62.1564 35.5605 61.7672 35.5906 61.3772 35.5914C61.226 35.5914 61.1873 35.6616 61.1621 35.7831C60.9221 36.9231 60.68 38.0655 60.4358 39.2103L58.2137 49.6881C58.1687 49.9005 58.1237 50.112 58.0814 50.3262C58.0598 50.4468 58.0166 50.5197 57.8789 50.4945C57.8415 50.4909 57.8039 50.4909 57.7664 50.4945H32.1407C31.8311 50.4945 31.832 50.4945 31.8986 50.1777C33.1814 44.1369 34.4636 38.0961 35.7452 32.0553C36.0314 30.7077 36.3185 29.3607 36.6065 28.0143C36.6316 27.9364 36.6264 27.8519 36.5921 27.7776C36.2096 27.0207 36.0881 26.199 36.008 25.3692C35.8037 23.2596 36.2942 21.2445 36.8693 19.2447C37.0358 18.6687 37.6622 18.3141 38.3453 18.3915C38.5964 18.4194 38.6684 18.351 38.7152 18.1134C38.9429 16.9758 39.1922 15.8427 39.4352 14.7078C39.4435 14.679 39.4543 14.651 39.4676 14.6241ZM48.3777 33.2541C48.4447 33.2469 48.5122 33.2469 48.5793 33.2541C49.4018 33.4413 49.823 32.9553 50.156 32.3208C50.1938 32.2479 50.2325 32.1741 50.2649 32.0994C50.4962 31.5729 50.4953 31.572 50.0696 31.1994C50.0416 31.173 50.0115 31.149 49.9796 31.1274C49.7934 31.014 49.7942 30.8925 49.9085 30.7071C50.2626 30.1311 50.7801 29.6735 51.395 29.3926C52.01 29.1116 52.6947 29.02 53.3618 29.1294C53.5901 29.1603 53.8053 29.2538 53.9837 29.3994C54.5687 29.8683 55.1735 30.3102 55.791 30.7368C56.3589 31.14 56.9517 31.507 57.5657 31.8357C57.7934 31.9545 57.806 31.9491 57.7853 31.7043C57.7457 31.2417 57.6999 30.7794 57.6476 30.3174C57.5315 29.2788 57.2174 28.3221 56.5532 27.4878C56.0771 26.8902 55.6245 26.2737 55.1385 25.6833C55.0912 25.6325 55.0561 25.5715 55.036 25.5051C55.0159 25.4386 55.0112 25.3684 55.0223 25.2999C55.1303 24.4485 55.1321 24.4431 54.6011 23.7699C53.4311 22.2867 52.0415 21.0159 50.6213 19.7793C50.5378 19.7159 50.4403 19.6733 50.3369 19.6551C49.3551 19.4135 48.3506 19.2757 47.3399 19.2438C46.7531 19.2168 46.2095 19.2816 45.728 19.6416C45.3347 19.9359 44.918 19.9845 44.4239 19.9026C42.8291 19.6371 41.2262 19.4193 39.6251 19.1925C39.1589 19.1268 38.6972 19.0125 38.2211 19.0359C37.8116 19.0548 37.5839 19.197 37.4804 19.5345C36.9701 21.2013 36.5804 22.8924 36.6371 24.6519C36.6667 26.2757 37.2043 27.8494 38.1743 29.1519C39.2543 30.6081 40.7159 31.5423 42.3872 32.175C44.3141 32.9022 46.3283 33.1623 48.3731 33.2505L48.3777 33.2541ZM48.1977 44.2998C48.1032 44.3619 48.041 44.4033 47.9781 44.4429C47.1978 44.9325 46.4183 45.4239 45.6335 45.9063C45.4751 46.0035 45.4679 46.0539 45.6155 46.1763C46.8755 47.2158 48.1301 48.2634 49.3874 49.3074C49.4189 49.3344 49.4477 49.3803 49.5143 49.3488C49.5278 49.1166 49.5548 48.8781 49.5512 48.6396C49.5508 48.3703 49.6075 48.1041 49.7177 47.8584C50.0678 47.0232 50.4026 46.1817 50.7464 45.3438C50.7905 45.2411 50.8105 45.1296 50.8049 45.018C50.7743 44.2764 50.7456 43.5348 50.7231 42.7932C50.7193 42.659 50.6785 42.5285 50.6052 42.4161C49.8096 41.1291 49.0193 39.8394 48.221 38.5533C48.1856 38.5022 48.1626 38.4435 48.1539 38.382C48.1451 38.3204 48.1509 38.2577 48.1706 38.1987C48.3038 37.7388 48.4244 37.2753 48.5567 36.8145C48.6067 36.6342 48.6219 36.4461 48.6017 36.2601C48.555 35.7525 48.5117 35.2449 48.4766 34.7364C48.4667 34.5672 48.419 34.5114 48.2399 34.5105C47.048 34.5113 45.8589 34.3935 44.6903 34.1586C41.6474 33.5286 39.1949 32.0058 37.4453 29.4075C37.4102 29.3562 37.3931 29.2824 37.2995 29.2617C37.2896 29.304 37.2788 29.3454 37.2698 29.3868C36.4934 33.0696 35.7173 36.753 34.9415 40.437C34.8443 40.8969 34.8443 40.9023 35.3069 40.9509C35.6057 40.9824 35.8901 41.0778 36.2069 40.9626C37.7414 40.4109 39.2858 39.8871 40.8248 39.3426C40.9012 39.3075 40.9858 39.2945 41.0691 39.305C41.1525 39.3155 41.2312 39.3491 41.2964 39.402C43.3394 40.86 45.3867 42.3126 47.4381 43.7598L48.1977 44.2998ZM41.003 40.1985C41.003 41.3001 41.003 42.3864 41.003 43.4736C41.005 43.6591 40.9685 43.8429 40.8959 44.0136C40.3019 45.4275 39.7151 46.845 39.1193 48.2589C39.0855 48.3244 39.0692 48.3975 39.072 48.4712C39.0749 48.5448 39.0968 48.6165 39.1355 48.6792C39.2615 48.9006 39.3731 49.1292 39.4766 49.3623C39.4957 49.4212 39.5345 49.4718 39.5864 49.5056C39.6384 49.5394 39.7003 49.5542 39.7619 49.5477C41.1947 49.5396 42.6266 49.5477 44.0585 49.5414C44.1206 49.5414 44.1917 49.5702 44.2583 49.4973C44.1269 49.2273 44 48.9474 43.8578 48.6774C43.785 48.5475 43.7631 48.3951 43.7966 48.2499C44.1476 46.5345 44.4896 44.8164 44.846 43.1019C44.882 42.9318 44.846 42.8472 44.711 42.7527C43.5362 41.9349 42.3635 41.1141 41.1929 40.2903C41.1412 40.2353 41.071 40.2014 40.9958 40.1949L41.003 40.1985ZM60.8165 35.0199C60.9812 35.0199 61.1459 35.0253 61.3106 35.0199C62.2943 34.9803 63.2654 34.8588 64.2014 34.5348C64.4894 34.4488 64.7549 34.3004 64.979 34.1001C65.0852 33.9984 65.1815 33.8787 65.1194 33.7248C65.0645 33.588 64.916 33.5781 64.7918 33.5772C64.4921 33.5772 64.1906 33.5691 63.8918 33.5961C62.6278 33.7168 61.3524 33.6222 60.1199 33.3162C57.9275 32.7717 55.9736 31.7376 54.1664 30.4092C53.932 30.226 53.6519 30.1105 53.3564 30.0753C52.5131 29.9853 51.7806 30.1806 51.2352 30.879C51.1343 31.0077 51.1316 31.0896 51.2639 31.2066C51.9596 31.8231 52.7093 32.3759 53.504 32.8581C55.745 34.2243 58.1615 35.0181 60.8093 35.0163L60.8165 35.0199ZM54.1079 34.0461C54.1313 34.2027 54.1529 34.3161 54.1646 34.4376C54.2015 34.8246 54.3284 35.2008 54.2897 35.595C54.1709 36.8037 53.9136 37.9917 53.7551 39.195C53.6327 40.1319 53.5077 41.0697 53.5581 42.0165C53.5986 42.7815 53.8469 43.4709 54.4958 43.9254C55.1078 44.3538 55.7801 44.4843 56.4866 44.1198C56.5416 44.0966 56.5877 44.0566 56.6185 44.0055C56.6492 43.9543 56.6629 43.8948 56.6576 43.8354C56.6548 43.5808 56.6298 43.327 56.5829 43.0767C56.5514 42.9183 56.5001 42.8769 56.3291 42.9075C55.6937 43.0218 55.2572 42.5646 55.3814 41.9337C55.4903 41.3793 55.7108 40.8627 55.9214 40.3434C56.4335 39.0969 57.042 37.8927 57.5738 36.6534C57.7097 36.3043 57.7931 35.937 57.8214 35.5635C57.8357 35.4411 57.8213 35.3781 57.6683 35.3583C57.4165 35.3215 57.1671 35.2698 56.9214 35.2035C55.9361 34.945 54.9899 34.5557 54.1079 34.0461Z" fill="#DFAC0F"/>
<path d="M48.7854 60.8958C49.0491 60.9382 49.3076 61.0081 49.5567 61.1046C50.3739 61.4457 50.8095 62.0784 50.849 62.9415C50.9228 64.5354 50.1552 65.7063 48.888 66.5838C48.0735 67.1447 47.1067 67.4425 46.1177 67.437C44.8064 67.4469 43.4943 67.437 42.1821 67.437C41.8311 67.437 41.7519 67.338 41.8221 66.9978C42.6159 63.1512 43.41 59.3046 44.2044 55.458C44.2854 55.0629 44.3844 54.9855 44.7804 54.9855C45.6273 54.9855 46.4741 54.9855 47.3219 54.9855C48.1058 54.9855 48.8789 55.0755 49.6043 55.395C50.3909 55.7415 50.9814 56.2851 51.066 57.1815C51.1866 58.4604 50.7555 59.5359 49.725 60.3423C49.4315 60.5585 49.1167 60.744 48.7854 60.8958ZM45.314 65.9835V65.97C45.5912 65.97 45.8684 65.9817 46.1447 65.97C47.4758 65.9061 48.3489 65.1384 48.5892 63.8298C48.7836 62.766 48.267 62.0298 47.2059 61.8696C46.5435 61.7715 45.8747 61.8462 45.2096 61.8228C45.0998 61.8228 45.0936 61.884 45.0783 61.9596C45.0045 62.3259 44.928 62.6922 44.8515 63.0576C44.6643 63.9576 44.4806 64.8576 44.2871 65.7576C44.2475 65.9376 44.2818 66.0051 44.4834 65.9916C44.7588 65.97 45.0368 65.9835 45.314 65.9835ZM46.0611 60.3666C46.3452 60.3837 46.6303 60.3674 46.9106 60.318C47.9447 60.0813 48.7341 59.1606 48.8367 58.068C48.9186 57.1995 48.5361 56.6829 47.6856 56.5083C47.3085 56.4309 46.926 56.4525 46.5462 56.4282C46.2852 56.4111 46.197 56.4903 46.1475 56.7504C45.9306 57.8952 45.6903 59.0355 45.4455 60.1758C45.4068 60.3558 45.4607 60.3765 45.6119 60.3666C45.7631 60.3567 45.9108 60.3666 46.0611 60.3666Z" fill="white"/>
<path d="M59.2623 59.5602C59.3802 59.2677 59.4891 59.0202 59.5791 58.7709C59.6045 58.6724 59.6644 58.5862 59.7481 58.5282C59.8317 58.4702 59.9334 58.4442 60.0345 58.455C60.417 58.4631 60.7995 58.455 61.182 58.455C61.4655 58.455 61.5483 58.5603 61.4943 58.8312C61.0743 60.9066 60.6543 62.9823 60.2343 65.0583C60.1917 65.2257 60.1771 65.3991 60.1911 65.5713C60.2298 65.8593 60.3261 65.961 60.6141 65.9988C60.7941 66.0222 60.8697 66.1212 60.8391 66.2904C60.7878 66.5775 60.7284 66.8637 60.6591 67.1472C60.6443 67.2338 60.5983 67.3119 60.5299 67.367C60.4614 67.422 60.3752 67.4501 60.2874 67.446C59.9273 67.4628 59.5666 67.4276 59.2164 67.3416C58.6629 67.1958 58.3605 66.8385 58.2903 66.2616C58.2822 66.1959 58.2795 66.1293 58.2732 66.0519C58.176 66.0753 58.1418 66.1563 58.0932 66.2121C56.9772 67.4307 55.5948 67.8627 53.9838 67.5828C52.8984 67.3938 52.2234 66.7161 51.9804 65.6334C51.7725 64.7109 51.8841 63.8001 52.0704 62.892C52.29 61.812 52.6599 60.7941 53.3304 59.8959C54.4887 58.3308 56.3535 57.9987 57.7719 58.3542C58.428 58.5243 58.9122 58.9221 59.2623 59.5602ZM53.9523 64.5507C53.9525 64.7537 53.97 64.9564 54.0045 65.1564C54.1026 65.754 54.432 66.0852 55.0296 66.1851C56.1996 66.3813 57.3192 65.8728 57.9015 64.8234C58.479 63.7666 58.7607 62.5736 58.7169 61.3701C58.6962 60.5187 58.2921 59.9904 57.5757 59.7807C57.1553 59.6654 56.714 59.6484 56.286 59.7312C55.5282 59.859 55.0863 60.3666 54.7767 61.0128C54.2403 62.1306 54.0495 63.3303 53.9523 64.5507Z" fill="white"/>
<path d="M76.6188 55.062C76.3698 56.274 76.1202 57.4836 75.87 58.6908C75.6216 59.8995 75.3741 61.1082 75.1239 62.325C75.2409 62.3178 75.2787 62.235 75.3336 62.181C76.4577 61.0677 77.5836 59.9562 78.6996 58.8348C78.8132 58.7108 78.9528 58.6134 79.1083 58.5495C79.2639 58.4855 79.4316 58.4567 79.5996 58.4649C80.0109 58.4802 80.424 58.4649 80.8362 58.473C80.9262 58.473 81.0396 58.4487 81.0792 58.5387C81.1188 58.6287 81.009 58.6917 80.9469 58.7493C79.5669 60.0483 78.1827 61.3449 76.7943 62.6391C76.6485 62.775 76.6485 62.8596 76.752 63.0198C77.6124 64.3527 78.462 65.6928 79.3179 67.0302C79.3584 67.0932 79.3989 67.1571 79.434 67.2219C79.5078 67.3569 79.4673 67.4514 79.3143 67.4523C78.6618 67.4523 78.0093 67.4586 77.3577 67.4442C77.1624 67.4442 77.0499 67.2849 76.9545 67.122C76.3071 66.0096 75.6573 64.8996 75.0051 63.792C74.9655 63.7245 74.9466 63.6381 74.8467 63.5913C74.6613 64.4913 74.4786 65.3796 74.2941 66.2697C74.2365 66.5487 74.1816 66.8277 74.1186 67.1049C74.0556 67.3821 73.9503 67.4568 73.6812 67.4586C73.2618 67.4586 72.8415 67.4586 72.4212 67.4586C72.0468 67.4586 71.9766 67.3758 72.0513 67.0167C72.2817 65.9034 72.5157 64.7901 72.7461 63.6759C73.2513 61.2453 73.7526 58.8183 74.25 56.3949C74.2578 56.3332 74.2815 56.2745 74.3187 56.2247C74.3559 56.1749 74.4054 56.1355 74.4624 56.1105C75.1059 55.7919 75.744 55.4625 76.3848 55.1394C76.4529 55.0901 76.5347 55.0631 76.6188 55.062Z" fill="white"/>
<path d="M65.5317 59.9076C65.8438 59.4898 66.2039 59.1101 66.6045 58.7763C67.5504 58.0023 69.4674 58.1229 70.3566 58.9356C71.0766 59.5953 71.2719 60.4404 71.1162 61.3566C70.9137 62.5437 70.6446 63.7191 70.4097 64.9008C70.3584 65.1573 70.3098 65.4174 70.3809 65.6802C70.4304 65.8647 70.5096 66.0132 70.7409 66.0114C70.9353 66.0114 71.0109 66.1302 70.9785 66.3093C70.9272 66.5955 70.8696 66.8826 70.803 67.1661C70.7877 67.2492 70.7428 67.324 70.6766 67.3766C70.6104 67.4292 70.5275 67.4561 70.443 67.4523C70.0831 67.472 69.7224 67.4353 69.3738 67.3434C68.5638 67.1157 68.1642 66.5334 68.2038 65.6334C68.2299 65.0223 68.409 64.4391 68.5161 63.8433C68.6619 63.0333 68.9058 62.2413 68.9508 61.4133C68.9612 61.2491 68.9612 61.0843 68.9508 60.9201C68.8878 60.0111 68.3208 59.5773 67.4289 59.7285C67.1503 59.7736 66.8844 59.877 66.6486 60.0321C66.4129 60.1872 66.2126 60.3905 66.0609 60.6285C65.6595 61.2171 65.4894 61.8885 65.3472 62.5743C65.037 64.0683 64.7241 65.5623 64.4085 67.0563C64.3419 67.3713 64.2348 67.4532 63.9126 67.4541C63.4779 67.4541 63.0423 67.4541 62.6076 67.4541C62.3313 67.4541 62.2476 67.3407 62.2998 67.0689C62.7198 65.0163 63.1416 62.9637 63.5652 60.9111C63.612 60.6843 63.6678 60.4611 63.5994 60.2235C63.5454 60.0435 63.4482 59.9265 63.2394 59.9094C62.9883 59.8887 62.9343 59.8014 62.9847 59.5494C63.0351 59.2974 63.0855 59.0499 63.1377 58.8015C63.1491 58.7069 63.1953 58.6199 63.2674 58.5575C63.3394 58.4951 63.4321 58.4618 63.5274 58.464C63.895 58.4405 64.2639 58.4764 64.62 58.5702C65.2131 58.7421 65.4606 59.0454 65.52 59.6592C65.52 59.724 65.52 59.7888 65.5317 59.9076Z" fill="white"/>
<path d="M12.9681 60.3432H14.3271C15.0021 60.3432 15.6771 60.3432 16.3521 60.3432C16.677 60.3432 16.7553 60.4386 16.6914 60.7572C16.641 61.0065 16.587 61.2549 16.5312 61.5033C16.4601 61.8165 16.3512 61.9029 16.0101 61.9029C14.9751 61.9029 13.9401 61.9029 12.906 61.8957C12.7089 61.8957 12.627 61.9335 12.5847 62.1468C12.2715 63.7326 11.9385 65.3139 11.6136 66.8979C11.5236 67.3479 11.4516 67.4091 10.9836 67.4091C10.5561 67.4091 10.1286 67.4091 9.70201 67.4091C9.39241 67.4091 9.31231 67.3092 9.37531 67.005C9.75331 65.1726 10.1322 63.3408 10.512 61.5096C10.926 59.5086 11.3388 57.5079 11.7504 55.5075C11.8512 55.0179 11.9187 54.9585 12.4245 54.9594L18.2745 54.9702C18.6921 54.9702 18.7551 55.0467 18.6696 55.4454C18.6192 55.6794 18.5715 55.9143 18.5157 56.1474C18.4464 56.4381 18.3438 56.5191 18.045 56.5191C16.695 56.5191 15.345 56.5191 13.995 56.5191C13.815 56.5191 13.7394 56.5524 13.7016 56.7441C13.4676 57.9366 13.2174 59.13 12.9681 60.3432Z" fill="white"/>
<path d="M30.672 67.635C29.9596 67.6284 29.2531 67.5068 28.5795 67.275C28.3421 67.2012 28.126 67.0712 27.9495 66.8961C27.7695 66.708 27.7695 66.5361 27.927 66.3345C28.0296 66.2058 28.1439 66.087 28.2537 65.9628C28.5237 65.6541 28.5687 65.6433 28.9737 65.7828C29.5353 65.9718 30.1005 66.1428 30.6972 66.1725C31.2255 66.2004 31.7448 66.1797 32.2434 65.9763C32.4397 65.8993 32.6137 65.7747 32.7498 65.6136C32.8858 65.4526 32.9797 65.2602 33.0228 65.0538C33.1065 64.7289 33.012 64.5048 32.7267 64.3248C32.423 64.1466 32.0983 64.0069 31.7601 63.909C31.3767 63.7848 30.9942 63.6507 30.6045 63.549C29.2095 63.1773 28.8738 62.1252 29.1465 60.9273C29.4714 59.5008 30.6 58.4973 32.1003 58.2831C33.1686 58.1328 34.2234 58.1931 35.2296 58.6368C35.4317 58.7167 35.6184 58.8312 35.7813 58.9752C35.9487 59.1354 35.9613 59.2686 35.8173 59.4459C35.6373 59.6601 35.4501 59.8617 35.271 60.0759C35.181 60.1812 35.0829 60.174 34.9677 60.1407C34.5294 60.0156 34.1109 59.8239 33.66 59.742C33.1461 59.652 32.6313 59.6205 32.1237 59.7663C31.9048 59.8241 31.7045 59.9373 31.542 60.0949C31.3795 60.2525 31.2602 60.4493 31.1958 60.6663C31.0338 61.1478 31.2111 61.4916 31.6953 61.6437C32.2947 61.8318 32.8968 62.01 33.4953 62.1927C33.7978 62.2768 34.0889 62.3977 34.362 62.5527C34.8678 62.8542 35.118 63.3069 35.1477 63.8856C35.2278 65.439 34.3917 66.6711 32.8509 67.2759C32.1894 67.5351 31.5 67.6377 30.672 67.635Z" fill="white"/>
<path d="M38.1941 59.8041C37.9196 59.8041 37.6424 59.8041 37.3661 59.8041C37.0457 59.8041 36.9746 59.7204 37.0358 59.4135C37.0799 59.193 37.1258 58.9734 37.1789 58.7556C37.1939 58.6654 37.2417 58.584 37.3132 58.527C37.3846 58.47 37.4747 58.4414 37.5659 58.4469C37.8134 58.4469 38.0618 58.4325 38.3084 58.4469C38.474 58.4586 38.5244 58.3956 38.5505 58.2426C38.6189 57.8376 38.7071 57.4326 38.7845 57.0303C38.7989 56.9565 38.8052 56.889 38.8871 56.8503C39.6278 56.4777 40.3676 56.1015 41.129 55.7154C41.1488 55.9575 41.0705 56.16 41.0318 56.3652C40.9139 56.9952 40.7852 57.6135 40.652 58.2363C40.6169 58.3992 40.6412 58.4613 40.8275 58.4514C41.1335 58.4361 41.4422 58.4442 41.7491 58.4514C41.9975 58.4559 42.0749 58.5459 42.0308 58.7916C41.9867 59.0373 41.9336 59.2605 41.8769 59.4927C41.8202 59.7249 41.6762 59.814 41.4503 59.8122C41.1281 59.8122 40.805 59.8122 40.4828 59.8122C40.3676 59.8122 40.3091 59.8383 40.2839 59.9607C39.9497 61.6347 39.6125 63.3075 39.2723 64.9791C39.231 65.1708 39.2407 65.37 39.3002 65.5569C39.3457 65.6851 39.4307 65.7955 39.5429 65.8724C39.6552 65.9492 39.7889 65.9884 39.9248 65.9844C40.5197 65.9997 40.5251 66.0051 40.4117 66.591C40.3766 66.771 40.337 66.9573 40.2947 67.1391C40.2823 67.2222 40.2402 67.2981 40.1762 67.3525C40.1121 67.407 40.0305 67.4363 39.9464 67.4352C39.4676 67.4469 38.9843 67.4784 38.5064 67.3938C37.5704 67.2264 37.1069 66.6738 37.0907 65.7126C37.0799 65.0826 37.2518 64.4823 37.3751 63.8739C37.6451 62.5392 37.9232 61.2054 38.1968 59.8707C38.1989 59.8485 38.198 59.8261 38.1941 59.8041Z" fill="white"/>
<path d="M25.7679 59.4513C25.8551 59.3395 25.9479 59.2323 26.046 59.13C26.7183 58.4928 27.54 58.2795 28.4418 58.2966C28.6218 58.2966 28.7001 58.3542 28.6515 58.5567C28.5543 58.9563 28.4796 59.3613 28.3932 59.7636C28.3167 60.1236 28.1988 60.183 27.8397 60.1389C26.919 60.0264 25.9119 60.3432 25.6122 61.6689C25.2126 63.4419 24.8301 65.2194 24.4422 66.9951C24.3522 67.419 24.273 67.4838 23.8338 67.4829C23.4369 67.4829 23.0391 67.4829 22.6422 67.4829C22.3317 67.4829 22.2552 67.383 22.3209 67.077C22.7631 65.0214 23.2059 62.9664 23.6493 60.912C23.6969 60.7308 23.7205 60.5441 23.7195 60.3567C23.7051 60.0579 23.5971 59.9337 23.2974 59.8851C23.1174 59.8563 23.0328 59.7555 23.0679 59.5719C23.1192 59.3019 23.1705 59.0319 23.2317 58.7619C23.2443 58.671 23.2899 58.588 23.3598 58.5286C23.4296 58.4691 23.5189 58.4375 23.6106 58.4397C24.075 58.4325 24.5403 58.4397 24.9912 58.5774C25.4106 58.7052 25.668 58.9752 25.704 59.4306L25.7679 59.4513Z" fill="white"/>
<path d="M17.8947 65.9106C17.9136 65.2689 18.099 64.656 18.2322 64.035C18.5985 62.325 18.9747 60.615 19.3482 58.905C19.4166 58.5909 19.5282 58.5054 19.8432 58.5036C20.2632 58.5036 20.6832 58.5036 21.1032 58.5036C21.4191 58.5036 21.4956 58.5936 21.4299 58.8987C20.9877 60.9471 20.544 62.9949 20.0988 65.0421C20.0378 65.2901 20.0157 65.546 20.0331 65.8008C20.0601 66.0879 20.1618 66.1968 20.439 66.2382C20.6046 66.2634 20.6811 66.3615 20.6532 66.519C20.601 66.8142 20.5416 67.1076 20.4732 67.3983C20.4561 67.476 20.4126 67.5455 20.35 67.5947C20.2875 67.6439 20.2098 67.6699 20.1303 67.6683C19.6803 67.6827 19.2303 67.6467 18.8073 67.4676C18.18 67.2066 17.8785 66.6792 17.8947 65.9106Z" fill="white"/>
<path d="M49.3371 72.9414C50.0967 73.3725 50.1633 74.2374 49.5171 74.8611C49.0455 75.3201 48.0159 75.4677 47.4309 75.1617C47.2945 75.0961 47.1797 74.9928 47.1 74.8642C47.0202 74.7355 46.9789 74.5867 46.9809 74.4354C46.9632 74.1756 47.0188 73.9161 47.1415 73.6865C47.2642 73.4569 47.449 73.2664 47.6748 73.1367C47.7873 73.0665 47.9106 73.0134 48.0276 72.9567C48.0276 72.9396 48.0276 72.9189 48.0204 72.9153C47.3805 72.5841 47.5227 71.9766 47.8575 71.5005C48.0267 71.2773 48.2692 71.1208 48.5424 71.0586C48.8479 70.978 49.1675 70.9657 49.4784 71.0226C49.7772 71.0721 50.0508 71.1963 50.1435 71.5167C50.2001 71.6874 50.212 71.8697 50.1781 72.0464C50.1442 72.223 50.0657 72.388 49.95 72.5256C49.7907 72.7128 49.5801 72.8253 49.3371 72.9414ZM47.7477 74.2104C47.741 74.3387 47.7821 74.4649 47.8631 74.5646C47.944 74.6643 48.0591 74.7305 48.186 74.7504C48.7809 74.8782 49.356 74.2698 49.2075 73.6704C49.1836 73.5519 49.1195 73.4453 49.026 73.3687C48.9325 73.2921 48.8153 73.2502 48.6945 73.2501C48.1878 73.2285 47.7459 73.6749 47.7477 74.2104ZM48.9924 71.5392C48.9064 71.5386 48.8211 71.555 48.7414 71.5874C48.6618 71.6198 48.5893 71.6675 48.5281 71.728C48.4669 71.7884 48.4182 71.8603 48.3848 71.9396C48.3515 72.0188 48.334 72.1039 48.3336 72.1899C48.3299 72.2497 48.3383 72.3096 48.3581 72.3661C48.3779 72.4226 48.4087 72.4746 48.4489 72.519C48.489 72.5634 48.5376 72.5994 48.5919 72.6248C48.6461 72.6502 48.7048 72.6645 48.7647 72.6669C49.0932 72.6723 49.4397 72.3069 49.4469 71.955C49.4514 71.7084 49.2678 71.541 48.9924 71.5392Z" fill="white"/>
<path d="M53.4995 71.8326C53.481 71.6322 53.397 71.4436 53.2605 71.2957C53.124 71.1478 52.9427 71.049 52.7444 71.0145C52.4626 70.9641 52.1726 70.9867 51.902 71.0802C51.1262 71.3601 50.8445 71.9919 50.7716 72.738C50.6951 73.5408 51.1613 73.9548 51.9659 73.8612C52.2701 73.8252 52.4798 73.6551 52.6958 73.4562C52.6747 73.7182 52.5917 73.9714 52.4537 74.1951C52.2206 74.6163 51.8723 74.8305 51.3791 74.7477C51.2157 74.729 51.0545 74.6946 50.8976 74.6451C50.6276 74.5434 50.6213 74.7819 50.5448 74.9052C50.4494 75.0591 50.6159 75.0924 50.7041 75.1356C51.4484 75.5055 52.2656 75.3462 52.7741 74.6712C53.4113 73.8369 53.6345 72.8694 53.4995 71.8326ZM52.8551 72.2313C52.8222 72.4846 52.7406 72.729 52.6148 72.9513C52.4726 73.1844 52.2773 73.3248 51.9902 73.3113C51.6302 73.3023 51.4727 73.1412 51.4808 72.729C51.4975 72.4846 51.561 72.2456 51.668 72.0252C51.7353 71.8737 51.847 71.7462 51.9884 71.6598C52.1981 71.5383 52.4294 71.4726 52.6463 71.6112C52.8632 71.7498 52.8956 71.9883 52.8551 72.2313Z" fill="white"/>
<path d="M55.53 74.25H53.937C53.7165 74.25 53.6742 74.1807 53.775 73.98C53.815 73.9087 53.864 73.8427 53.9208 73.7838C54.6489 72.9486 55.3887 72.1233 56.1024 71.2764C56.3121 71.0271 56.5524 71.0532 56.8125 71.0667C56.9592 71.0739 56.9025 71.1954 56.8854 71.2746C56.7582 71.8974 56.6298 72.5196 56.5002 73.1412C56.4781 73.2817 56.448 73.4208 56.4102 73.5579C56.3589 73.7163 56.4291 73.7253 56.5587 73.7325C56.6604 73.7379 56.8413 73.6425 56.8368 73.8675C56.8305 74.1735 56.7639 74.2707 56.5353 74.2464C56.3067 74.2221 56.2266 74.313 56.2122 74.5164C56.2018 74.5904 56.1871 74.6637 56.1681 74.736C56.0556 75.2868 56.0556 75.2823 55.4931 75.2517C55.3536 75.2436 55.3284 75.1878 55.3536 75.0717C55.4121 74.808 55.467 74.5443 55.53 74.25ZM55.9512 72.1944L54.6687 73.7244C54.9945 73.7244 55.26 73.7244 55.5255 73.7244C55.542 73.7267 55.5588 73.7255 55.5749 73.7209C55.591 73.7163 55.6059 73.7084 55.6188 73.6978C55.6316 73.6871 55.6421 73.6739 55.6496 73.659C55.6571 73.644 55.6614 73.6277 55.6623 73.611C55.7523 73.161 55.845 72.7092 55.9503 72.1935L55.9512 72.1944Z" fill="white"/>
<path d="M29.8574 75.3012C29.5139 75.3007 29.1737 75.2335 28.8557 75.1032C28.7765 75.069 28.6208 75.0483 28.6919 74.9232C28.763 74.7981 28.7756 74.5551 29.0294 74.6154C29.377 74.7076 29.7355 74.7518 30.0951 74.7468C30.284 74.7423 30.4692 74.6927 30.6351 74.6019C31.0536 74.3679 31.0688 73.9215 30.6548 73.6776C30.4511 73.5694 30.2407 73.4744 30.0248 73.3932C29.1365 73.0107 28.9718 72.144 29.6765 71.4726C30.2435 70.9326 30.9266 70.8867 31.6493 71.0721C31.7141 71.0892 31.7771 71.1126 31.841 71.1342C32.1839 71.2521 32.1902 71.2773 32.003 71.5734C31.9933 71.5951 31.9794 71.6147 31.9621 71.6309C31.9448 71.6472 31.9244 71.6599 31.9021 71.6683C31.8799 71.6767 31.8562 71.6805 31.8324 71.6797C31.8086 71.6789 31.7853 71.6733 31.7636 71.6634C31.4123 71.5539 31.0431 71.5136 30.6764 71.5446C30.5521 71.5523 30.4314 71.5895 30.3242 71.653C30.217 71.7165 30.1264 71.8046 30.0599 71.91C29.8799 72.2025 29.9465 72.468 30.2534 72.6183C30.4613 72.72 30.6809 72.7983 30.8933 72.8883C31.8095 73.2771 31.9391 74.2995 31.1525 74.9133C30.8249 75.1653 30.392 75.2985 29.8574 75.3012Z" fill="white"/>
<path d="M35.1685 72.6732C35.3782 72.4473 35.5537 72.234 35.8462 72.1692C36.6391 71.9946 37.1863 72.5238 37.0243 73.3176C36.9487 73.6911 36.8686 74.0637 36.7966 74.4381C36.7714 74.5713 36.7561 74.691 36.9352 74.7648C37.0756 74.8224 36.9541 74.9619 36.9496 75.0645C36.9513 75.0869 36.9484 75.1094 36.941 75.1306C36.9336 75.1518 36.9218 75.1712 36.9065 75.1876C36.8912 75.204 36.8726 75.2171 36.852 75.226C36.8314 75.2348 36.8091 75.2393 36.7867 75.2391C36.2953 75.2949 35.9875 74.979 36.0739 74.4894C36.1387 74.1213 36.2179 73.7559 36.2899 73.3887C36.303 73.3295 36.3111 73.2693 36.3142 73.2087C36.3205 72.9954 36.3142 72.7794 36.0883 72.6687C35.8939 72.5724 35.5888 72.6543 35.4142 72.8487C35.2396 73.0431 35.1595 73.2987 35.1055 73.5597C35.0011 74.0574 34.8931 74.5542 34.795 75.0537C34.794 75.0813 34.7872 75.1085 34.775 75.1333C34.7629 75.1582 34.7456 75.1802 34.7244 75.1979C34.7032 75.2157 34.6785 75.2287 34.6519 75.2363C34.6252 75.2439 34.5973 75.2457 34.57 75.2418C34.0435 75.2544 34.0444 75.2589 34.1506 74.7432C34.2676 74.1714 34.3837 73.5999 34.4989 73.0287C34.5268 72.8892 34.5664 72.7416 34.3603 72.6894C34.2703 72.666 34.2901 72.5805 34.3135 72.5211C34.3549 72.4176 34.3036 72.2673 34.462 72.2223C34.5382 72.1982 34.6187 72.1911 34.698 72.2016C34.7772 72.212 34.8532 72.2397 34.9206 72.2827C34.9879 72.3257 35.0451 72.3829 35.0879 72.4504C35.1307 72.5179 35.1582 72.5939 35.1685 72.6732Z" fill="white"/>
<path d="M41.9139 73.9746C41.7195 73.9746 41.5233 73.9845 41.3298 73.9746C41.1858 73.9656 41.1498 74.0268 41.1498 74.1546C41.1309 74.628 41.3865 74.8791 41.8554 74.8215C42.0482 74.7973 42.2382 74.7538 42.4224 74.6919C42.5655 74.6442 42.6186 74.6919 42.6753 74.8134C42.732 74.9349 42.7068 75.0285 42.5853 75.0897C42.2154 75.2775 41.7988 75.3532 41.3865 75.3075C40.689 75.2391 40.3731 74.835 40.4388 74.133C40.467 73.7516 40.5675 73.3789 40.7349 73.035C41.0796 72.3483 41.7249 72.0315 42.4647 72.18C42.8949 72.27 43.1487 72.5517 43.1703 72.99C43.1775 73.1247 43.1684 73.2598 43.1433 73.3923C43.0533 73.8261 42.8733 73.9728 42.4314 73.9818C42.2595 73.9818 42.0867 73.9818 41.9148 73.9818L41.9139 73.9746ZM41.2686 73.4823H42.2289C42.2657 73.4867 42.3029 73.4805 42.3364 73.4646C42.3698 73.4487 42.3981 73.4236 42.4179 73.3923C42.5151 73.2258 42.4692 72.8766 42.3279 72.7398C42.1866 72.603 41.976 72.5922 41.7672 72.711C41.4747 72.8757 41.3676 73.17 41.2686 73.4823Z" fill="white"/>
<path d="M21.1833 55.08C21.4227 55.08 21.6621 55.0746 21.9033 55.08C22.1211 55.0863 22.2066 55.1862 22.1652 55.395C22.0716 55.8642 21.9726 56.3316 21.8682 56.7972C21.8133 57.0375 21.6882 57.1356 21.4362 57.1374C20.9862 57.1374 20.5362 57.1374 20.0862 57.1374C19.8054 57.1329 19.7262 57.0258 19.7865 56.7522C19.8765 56.3139 19.9737 55.8756 20.0718 55.4391C20.1303 55.1781 20.2464 55.0854 20.5083 55.0791C20.7324 55.0791 20.9583 55.0791 21.1815 55.0791L21.1833 55.08Z" fill="white"/>
<path d="M45.7749 71.9253C45.5319 72.0261 45.3141 72.117 45.0945 72.2043C45.0405 72.2259 44.9622 72.2637 44.9289 72.2421C44.8641 72.2007 44.9154 72.1188 44.919 72.054C44.9325 71.82 45.0522 71.6841 45.279 71.5986C45.6912 71.4402 46.089 71.2521 46.4967 71.0784C46.5561 71.0523 46.6218 70.9884 46.6767 71.0262C46.7316 71.064 46.6848 71.1513 46.6767 71.2125C46.4184 72.4815 46.1556 73.7496 45.9 75.0186C45.8658 75.1887 45.7902 75.2499 45.6129 75.2472C45.1008 75.24 45.1044 75.2472 45.2097 74.7477C45.3969 73.8621 45.5787 72.9747 45.7623 72.0882C45.7686 72.0459 45.7677 72 45.7749 71.9253Z" fill="white"/>
<path d="M37.6119 74.2248C37.6212 73.8113 37.72 73.4048 37.9017 73.0332C38.277 72.2502 39.2778 71.8983 40.0419 72.2835C40.1391 72.333 40.32 72.3582 40.2561 72.5373C40.1832 72.7371 40.0059 72.8226 39.8313 72.7398C39.1428 72.4158 38.6559 72.8235 38.4714 73.3977C38.3722 73.6808 38.327 73.98 38.3382 74.2797C38.3616 74.6523 38.5929 74.8503 38.9682 74.8197C39.1463 74.7962 39.3209 74.7515 39.4884 74.6865C39.5784 74.6568 39.6594 74.628 39.7053 74.7531C39.7431 74.8566 39.816 74.9466 39.6927 75.0519C39.3138 75.375 38.3364 75.4002 37.9467 75.0888C37.6623 74.8674 37.6047 74.5578 37.6119 74.2248Z" fill="white"/>
<path d="M32.2749 74.5623C32.3577 74.1492 32.4549 73.6623 32.5566 73.1682C32.6088 72.9117 32.67 72.657 32.715 72.3996C32.7157 72.3719 32.7223 72.3447 32.7343 72.3198C32.7463 72.2948 32.7635 72.2727 32.7846 72.2548C32.8058 72.237 32.8305 72.2238 32.8571 72.2162C32.8838 72.2086 32.9117 72.2067 32.9391 72.2106C33.471 72.1944 33.4683 72.1899 33.3621 72.7029C33.2442 73.2744 33.1272 73.845 33.0147 74.4174C32.9877 74.556 32.9616 74.6874 33.1551 74.7621C33.2919 74.8143 33.1758 74.9421 33.1713 75.042C33.1668 75.1419 33.1398 75.2148 33.0255 75.2373C32.6214 75.3165 32.2749 75.0438 32.2749 74.5623Z" fill="white"/>
<path d="M33.3666 70.9263C33.4566 70.9263 33.5259 70.9263 33.5925 70.9263C33.6591 70.9263 33.7194 70.9551 33.7059 71.0307C33.6753 71.199 33.6375 71.3655 33.5961 71.5311C33.5799 71.5941 33.5223 71.6157 33.4593 71.6274C32.9283 71.7228 32.8671 71.6481 32.9751 71.127C33.03 70.8444 33.2334 70.9506 33.3666 70.9263Z" fill="white"/>
<path d="M48.3732 33.2505C46.3284 33.1605 44.3142 32.9022 42.3855 32.1705C40.7142 31.5405 39.2526 30.6036 38.1726 29.1474C37.2025 27.8449 36.6649 26.2712 36.6354 24.6474C36.5823 22.8879 36.9684 21.1968 37.4787 19.53C37.5822 19.1925 37.8099 19.0503 38.2194 19.0314C38.6955 19.008 39.1572 19.1214 39.6234 19.188C41.2245 19.4148 42.8274 19.6326 44.4222 19.8981C44.9154 19.98 45.333 19.9314 45.7263 19.6371C46.2078 19.2771 46.7514 19.2123 47.3382 19.2393C48.3494 19.2735 49.3542 19.4137 50.3361 19.6578C50.4394 19.676 50.5369 19.7186 50.6205 19.782C52.0407 21.0186 53.4276 22.2894 54.6003 23.7726C55.1313 24.444 55.1295 24.4494 55.0215 25.3026C55.0103 25.3711 55.015 25.4413 55.0351 25.5078C55.0552 25.5742 55.0903 25.6352 55.1376 25.686C55.6236 26.2764 56.0763 26.8929 56.5524 27.4905C57.2166 28.3248 57.5307 29.2815 57.6468 30.3201C57.699 30.7815 57.7449 31.2438 57.7845 31.707C57.8052 31.9518 57.7926 31.9572 57.5649 31.8384C56.9508 31.5097 56.358 31.1427 55.7901 30.7395C55.1727 30.3129 54.5679 29.871 53.9829 29.4021C53.8045 29.2565 53.5892 29.163 53.361 29.1321C52.6938 29.0227 52.0091 29.1143 51.3942 29.3953C50.7792 29.6762 50.2617 30.1338 49.9077 30.7098C49.7934 30.8952 49.7925 31.0167 49.9788 31.1301C50.0107 31.1517 50.0408 31.1757 50.0688 31.2021C50.4945 31.5711 50.4954 31.572 50.2641 32.1021C50.2317 32.1768 50.193 32.2506 50.1552 32.3235C49.8222 32.9535 49.401 33.444 48.5784 33.2568C48.5104 33.2472 48.4416 33.2451 48.3732 33.2505ZM50.5548 25.4016L49.3389 24.0372C49.2372 23.9229 49.1814 24.0372 49.122 24.0858C48.5064 24.6222 47.892 25.1604 47.2788 25.7004C47.2266 25.7463 47.1492 25.7769 47.1384 25.8759L50.5548 25.4016Z" fill="#003B65"/>
<path d="M48.1905 44.2962L47.4336 43.7562C45.3852 42.3054 43.338 40.8537 41.292 39.4011C41.2268 39.3482 41.148 39.3146 41.0647 39.3041C40.9814 39.2936 40.8967 39.3066 40.8204 39.3417C39.2814 39.8817 37.737 40.4064 36.2025 40.9617C35.883 41.0769 35.5986 40.9815 35.3025 40.95C34.8399 40.9014 34.8399 40.896 34.9371 40.4361C35.7111 36.7503 36.4854 33.0657 37.26 29.3823C37.269 29.3409 37.2798 29.2995 37.2897 29.2572C37.3797 29.2779 37.4004 29.3517 37.4355 29.403C39.1851 32.0013 41.6376 33.5277 44.6805 34.1541C45.8491 34.389 47.0382 34.5068 48.2301 34.506C48.4101 34.506 48.4569 34.5627 48.4668 34.7319C48.4983 35.2404 48.5451 35.748 48.5919 36.2556C48.6121 36.4416 48.5968 36.6297 48.5469 36.81C48.4146 37.2708 48.294 37.7343 48.1608 38.1942C48.1411 38.2532 48.1353 38.3159 48.1441 38.3775C48.1528 38.439 48.1758 38.4977 48.2112 38.5488C49.0095 39.8349 49.7997 41.1246 50.5953 42.4116C50.6686 42.524 50.7094 42.6545 50.7132 42.7887C50.7357 43.5303 50.7645 44.2719 50.7951 45.0135C50.8006 45.1251 50.7806 45.2366 50.7366 45.3393C50.3928 46.1772 50.058 47.0187 49.7079 47.8539C49.5977 48.0996 49.541 48.3658 49.5414 48.6351C49.5414 48.8736 49.518 49.1121 49.5045 49.3443C49.4379 49.3758 49.4091 49.3299 49.3776 49.3029C48.1176 48.2589 46.8666 47.2113 45.6057 46.1718C45.4581 46.0503 45.4653 45.9999 45.6237 45.9018C46.4085 45.4194 47.1879 44.928 47.9682 44.4384C48.0339 44.3997 48.096 44.3583 48.1905 44.2962Z" fill="#003B65"/>
<path d="M40.9959 40.1949C41.0695 40.2024 41.1379 40.2363 41.1885 40.2903C42.3615 41.1111 43.5342 41.931 44.7066 42.75C44.8434 42.8445 44.8776 42.93 44.8416 43.0992C44.4816 44.8092 44.1432 46.5318 43.7922 48.2472C43.7587 48.3924 43.7805 48.5448 43.8534 48.6747C43.9956 48.9447 44.1234 49.2228 44.2539 49.4946C44.1873 49.5675 44.1162 49.5387 44.0541 49.5387C42.6222 49.5387 41.1903 49.5387 39.7575 49.545C39.6959 49.5515 39.6339 49.5367 39.5819 49.5029C39.53 49.4691 39.4912 49.4185 39.4722 49.3596C39.3687 49.1274 39.2571 48.8979 39.1311 48.6765C39.0923 48.6138 39.0704 48.5421 39.0676 48.4685C39.0647 48.3948 39.081 48.3217 39.1149 48.2562C39.7107 46.8423 40.2975 45.4248 40.8915 44.0109C40.9641 43.8402 41.0005 43.6564 40.9986 43.4709C40.9923 42.3828 40.9959 41.2965 40.9959 40.1949Z" fill="#003B65"/>
<path d="M60.8094 35.0163C58.1616 35.0163 55.7451 34.2243 53.4987 32.8563C52.704 32.3741 51.9543 31.8213 51.2586 31.2048C51.1263 31.0878 51.129 31.0059 51.2298 30.8772C51.7752 30.1788 52.5078 29.9844 53.3511 30.0735C53.6465 30.1087 53.9266 30.2242 54.1611 30.4074C55.9683 31.7358 57.9222 32.7699 60.1146 33.3144C61.3458 33.6184 62.6196 33.7115 63.882 33.5898C64.1799 33.5628 64.4814 33.5682 64.782 33.5709C64.9062 33.5709 65.052 33.5817 65.1096 33.7185C65.1717 33.8724 65.0754 33.9885 64.9692 34.0938C64.7451 34.2941 64.4796 34.4425 64.1916 34.5285C63.2556 34.8525 62.2845 34.974 61.3008 35.0136C61.1388 35.0217 60.9741 35.0163 60.8094 35.0163Z" fill="#003B65"/>
<path d="M54.108 34.0461C54.9907 34.5562 55.9378 34.9458 56.9241 35.2044C57.1698 35.2707 57.4192 35.3224 57.6711 35.3592C57.8196 35.379 57.8385 35.442 57.8241 35.5644C57.7958 35.9379 57.7124 36.3052 57.5766 36.6543C57.0447 37.8918 56.4363 39.096 55.9242 40.3443C55.7109 40.8636 55.4904 41.3802 55.3842 41.9346C55.26 42.5646 55.6965 43.0227 56.3319 42.9084C56.5029 42.8778 56.5542 42.9192 56.5857 43.0776C56.6325 43.3279 56.6575 43.5817 56.6604 43.8363C56.6656 43.8957 56.6519 43.9552 56.6212 44.0064C56.5905 44.0575 56.5443 44.0975 56.4894 44.1207C55.7829 44.4852 55.1106 44.3547 54.4986 43.9263C53.8497 43.4718 53.5986 42.7824 53.5608 42.0174C53.5104 41.0706 53.6355 40.1328 53.7579 39.1959C53.9163 37.9935 54.1737 36.8055 54.2925 35.5959C54.3312 35.2017 54.2025 34.8255 54.1674 34.4385C54.153 34.3197 54.1314 34.2 54.108 34.0461Z" fill="#003B65"/>
<path d="M50.5548 25.4016L47.1348 25.8759C47.1456 25.7769 47.2248 25.7463 47.2752 25.7004C47.8878 25.1604 48.5022 24.6222 49.1184 24.0858C49.1778 24.0345 49.2336 23.9229 49.3353 24.0372L50.5548 25.4016Z" fill="#DCAA10"/>
</g>
<defs>
<clipPath id="clip0_20_2131">
<rect width="90" height="90" fill="white"/>
</clipPath>
</defs>
</svg>
