<svg width="210" height="210" viewBox="0 0 210 210" fill="none" xmlns="http://www.w3.org/2000/svg">
<rect width="210" height="210" rx="105" fill="white"/>
<path d="M62.5789 98.6997C62.5789 98.6997 81.4105 97.9456 85.48 66.9905C89.0939 39.4993 120.849 52.0123 130.028 62.9709C141.919 77.1669 135.58 101.587 150.962 104.672C166.345 107.757 156.3 142.056 132.951 138.773C103.905 134.689 110.932 151.662 102.213 158.846C95.955 164.002 70.2961 159.038 69.441 140.322C68.7213 124.573 62.0778 124.623 57.3689 122.837C50.5775 120.261 46.2982 101.608 62.5789 98.6997Z" fill="#DAE8F2"/>
<path d="M126.595 133.077L108.094 114.795L104.43 118.502L122.932 136.784L126.595 133.077Z" fill="#879AA8"/>
<path d="M133.663 137.989L119.269 123.765C119.189 123.686 119.06 123.687 118.981 123.767L113.533 129.281C113.453 129.361 113.454 129.49 113.534 129.569L127.928 143.793C128.009 143.872 128.138 143.871 128.217 143.791L133.665 138.277C133.744 138.197 133.743 138.068 133.663 137.989Z" fill="#003B65"/>
<path d="M91.6963 123.989C104.425 123.989 114.743 113.671 114.743 100.942C114.743 88.214 104.425 77.8955 91.6963 77.8955C78.9679 77.8955 68.6494 88.214 68.6494 100.942C68.6494 113.671 78.9679 123.989 91.6963 123.989Z" fill="#003B65"/>
<path d="M91.6965 120.229C102.348 120.229 110.983 111.594 110.983 100.943C110.983 90.291 102.348 81.6562 91.6965 81.6562C81.045 81.6562 72.4102 90.291 72.4102 100.943C72.4102 111.594 81.045 120.229 91.6965 120.229Z" fill="#DAE8F2"/>
<path d="M129.726 92.4108V92.0104C129.754 89.3972 130.014 87.3179 130.506 85.7724C131.012 84.227 131.728 82.9765 132.655 82.0212C133.583 81.0658 134.7 80.1947 136.006 79.408C136.849 78.8741 137.608 78.277 138.282 77.6166C138.957 76.9563 139.491 76.1976 139.884 75.3406C140.277 74.4836 140.474 73.5352 140.474 72.4956C140.474 71.2451 140.179 70.1633 139.589 69.2501C138.999 68.3369 138.212 67.6344 137.229 67.1427C136.259 66.6369 135.177 66.384 133.983 66.384C132.901 66.384 131.869 66.6088 130.885 67.0584C129.902 67.508 129.087 68.2104 128.441 69.1658C127.794 70.1071 127.422 71.3224 127.324 72.8117H120.917C121.015 70.2827 121.655 68.1472 122.835 66.4051C124.015 64.6489 125.574 63.3212 127.513 62.422C129.466 61.5228 131.623 61.0732 133.983 61.0732C136.568 61.0732 138.83 61.558 140.769 62.5274C142.708 63.4827 144.211 64.8245 145.279 66.5526C146.361 68.2666 146.902 70.2687 146.902 72.5588C146.902 74.1323 146.656 75.5513 146.164 76.8158C145.672 78.0662 144.97 79.1832 144.057 80.1666C143.157 81.1501 142.076 82.0212 140.811 82.7799C139.617 83.5245 138.648 84.2972 137.903 85.098C137.172 85.8989 136.638 86.8472 136.301 87.9431C135.964 89.0389 135.781 90.3947 135.753 92.0104V92.4108H129.726ZM132.908 105.224C131.756 105.224 130.766 104.817 129.937 104.002C129.108 103.173 128.693 102.175 128.693 101.009C128.693 99.8571 129.108 98.8736 129.937 98.0588C130.766 97.2299 131.756 96.8154 132.908 96.8154C134.046 96.8154 135.03 97.2299 135.859 98.0588C136.702 98.8736 137.123 99.8571 137.123 101.009C137.123 101.782 136.926 102.491 136.533 103.138C136.154 103.77 135.648 104.276 135.016 104.655C134.384 105.034 133.681 105.224 132.908 105.224Z" fill="#003B65"/>
</svg>
