<svg width="70" height="70" viewBox="0 0 70 70" fill="none" xmlns="http://www.w3.org/2000/svg">
<path d="M49.8619 25.5131C50.2394 25.8911 50.4514 26.4034 50.4514 26.9375C50.4514 27.4716 50.2394 27.9839 49.8619 28.3619L31.0494 47.1744C30.6715 47.5518 30.1592 47.7639 29.625 47.7639C29.0909 47.7639 28.5786 47.5518 28.2006 47.1744L20.1381 39.1119C19.7821 38.7298 19.5883 38.2244 19.5975 37.7022C19.6067 37.18 19.8182 36.6818 20.1875 36.3125C20.5568 35.9432 21.0551 35.7317 21.5772 35.7225C22.0994 35.7133 22.6048 35.9071 22.9869 36.2631L29.625 42.8979L47.0131 25.5131C47.3911 25.1357 47.9034 24.9236 48.4375 24.9236C48.9717 24.9236 49.484 25.1357 49.8619 25.5131ZM69.2656 35C69.2656 41.7771 67.256 48.402 63.4908 54.037C59.7257 59.6719 54.3741 64.0638 48.1129 66.6573C41.8517 69.2508 34.962 69.9294 28.3151 68.6072C21.6682 67.2851 15.5627 64.0216 10.7706 59.2295C5.97843 54.4373 2.71494 48.3318 1.39279 41.6849C0.0706483 35.038 0.749221 28.1483 3.34271 21.8871C5.93619 15.6259 10.3281 10.2743 15.9631 6.50917C21.598 2.74402 28.2229 0.734375 35 0.734375C44.0845 0.745044 52.7939 4.35859 59.2177 10.7823C65.6414 17.2061 69.255 25.9155 69.2656 35ZM65.2344 35C65.2344 29.0202 63.4612 23.1747 60.139 18.2027C56.8168 13.2307 52.0948 9.35545 46.5702 7.06708C41.0456 4.77871 34.9665 4.17997 29.1016 5.34657C23.2367 6.51317 17.8494 9.39272 13.6211 13.6211C9.39273 17.8494 6.51319 23.2367 5.34659 29.1016C4.17999 34.9665 4.77873 41.0456 7.06709 46.5702C9.35546 52.0948 13.2307 56.8168 18.2027 60.139C23.1747 63.4612 29.0202 65.2344 35 65.2344C43.0159 65.2255 50.701 62.0372 56.3691 56.3691C62.0372 50.701 65.2255 43.0159 65.2344 35Z" fill="#47C96B"/>
</svg>
