<svg width="24" height="25" viewBox="0 0 24 25" fill="none" xmlns="http://www.w3.org/2000/svg">
<path d="M6 7.378V6.5C6 5.90326 6.23705 5.33097 6.65901 4.90901C7.08097 4.48705 7.65326 4.25 8.25 4.25H15.75C16.3467 4.25 16.919 4.48705 17.341 4.90901C17.7629 5.33097 18 5.90326 18 6.5V7.378M6 7.378C6.235 7.295 6.487 7.25 6.75 7.25H17.25C17.513 7.25 17.765 7.295 18 7.378M6 7.378C5.56121 7.53313 5.18133 7.82052 4.91269 8.20056C4.64404 8.5806 4.49986 9.0346 4.5 9.5V10.378M18 7.378C18.4388 7.53313 18.8187 7.82052 19.0873 8.20056C19.356 8.5806 19.5001 9.0346 19.5 9.5V10.378M4.5 10.378C4.735 10.295 4.987 10.25 5.25 10.25H18.75C19.0055 10.2497 19.2591 10.293 19.5 10.378M4.5 10.378C3.626 10.687 3 11.52 3 12.5V18.5C3 19.0967 3.23705 19.669 3.65901 20.091C4.08097 20.5129 4.65326 20.75 5.25 20.75H18.75C19.3467 20.75 19.919 20.5129 20.341 20.091C20.7629 19.669 21 19.0967 21 18.5V12.5C21.0001 12.0346 20.856 11.5806 20.5873 11.2006C20.3187 10.8205 19.9388 10.5331 19.5 10.378" stroke="#142633" stroke-width="1.5" stroke-linecap="round" stroke-linejoin="round"/>
</svg>
