<svg width="24" height="25" viewBox="0 0 24 25" fill="none" xmlns="http://www.w3.org/2000/svg">
<path d="M22 22.5H2M2 11.5L10.126 5C10.6579 4.57449 11.3188 4.34267 12 4.34267C12.6812 4.34267 13.3421 4.57449 13.874 5L22 11.5M15.5 6V4C15.5 3.86739 15.5527 3.74021 15.6464 3.64645C15.7402 3.55268 15.8674 3.5 16 3.5H18.5C18.6326 3.5 18.7598 3.55268 18.8536 3.64645C18.9473 3.74021 19 3.86739 19 4V9M4 22.5V10M20 22.5V10" stroke="#142633" stroke-width="1.5" stroke-linecap="round"/>
<path d="M15 22.5V17.5C15 16.086 15 15.379 14.56 14.94C14.122 14.5 13.415 14.5 12 14.5C10.586 14.5 9.879 14.5 9.44 14.94C9 15.378 9 16.085 9 17.5V22.5M14 10C14 10.5304 13.7893 11.0391 13.4142 11.4142C13.0391 11.7893 12.5304 12 12 12C11.4696 12 10.9609 11.7893 10.5858 11.4142C10.2107 11.0391 10 10.5304 10 10C10 9.46957 10.2107 8.96086 10.5858 8.58579C10.9609 8.21071 11.4696 8 12 8C12.5304 8 13.0391 8.21071 13.4142 8.58579C13.7893 8.96086 14 9.46957 14 10Z" stroke="#142633" stroke-width="1.5"/>
</svg>
