<svg width="24" height="25" viewBox="0 0 24 25" fill="none" xmlns="http://www.w3.org/2000/svg">
<g clip-path="url(#clip0_1214_12342)">
<path d="M12.8572 15.929L7.71429 16.8547L8.57144 11.6433L18.3943 1.85474C18.5537 1.69406 18.7433 1.56653 18.9522 1.4795C19.1611 1.39246 19.3851 1.34766 19.6114 1.34766C19.8377 1.34766 20.0618 1.39246 20.2707 1.4795C20.4796 1.56653 20.6692 1.69406 20.8286 1.85474L22.6457 3.67188C22.8064 3.83125 22.9339 4.02085 23.021 4.22975C23.108 4.43865 23.1528 4.66272 23.1528 4.88902C23.1528 5.11533 23.108 5.3394 23.021 5.5483C22.9339 5.7572 22.8064 5.9468 22.6457 6.10617L12.8572 15.929Z" stroke="#142633" stroke-width="1.71429" stroke-linecap="round" stroke-linejoin="round"/>
<path d="M20.5715 16.7859V21.9287C20.5715 22.3834 20.3909 22.8194 20.0694 23.1409C19.7479 23.4624 19.3118 23.643 18.8572 23.643H2.57146C2.11681 23.643 1.68077 23.4624 1.35928 23.1409C1.03779 22.8194 0.857178 22.3834 0.857178 21.9287V5.643C0.857178 5.18834 1.03779 4.7523 1.35928 4.43081C1.68077 4.10932 2.11681 3.92871 2.57146 3.92871H7.71432" stroke="#142633" stroke-width="1.71429" stroke-linecap="round" stroke-linejoin="round"/>
</g>
<defs>
<clipPath id="clip0_1214_12342">
<rect width="24" height="24" fill="white" transform="translate(0 0.5)"/>
</clipPath>
</defs>
</svg>
