<svg width="24" height="25" viewBox="0 0 24 25" fill="none" xmlns="http://www.w3.org/2000/svg">
<path d="M23.2116 6.23938L18.3591 3.59375C18.2491 3.53292 18.1257 3.50068 18 3.5H15C14.8011 3.5 14.6103 3.57902 14.4697 3.71967C14.329 3.86032 14.25 4.05109 14.25 4.25C14.25 4.84674 14.0129 5.41903 13.591 5.84099C13.169 6.26295 12.5967 6.5 12 6.5C11.4033 6.5 10.831 6.26295 10.409 5.84099C9.98705 5.41903 9.75 4.84674 9.75 4.25C9.75 4.05109 9.67098 3.86032 9.53033 3.71967C9.38968 3.57902 9.19891 3.5 9 3.5H6C5.87403 3.50052 5.75022 3.53276 5.64 3.59375L0.788437 6.23938C0.442594 6.42214 0.183342 6.7346 0.0675276 7.10823C-0.0482869 7.48186 -0.0112115 7.88617 0.170624 8.2325L1.97719 11.6834C2.10854 11.9315 2.30544 12.1389 2.54645 12.2828C2.78745 12.4268 3.06333 12.5019 3.34406 12.5H5.25V20C5.25 20.3978 5.40803 20.7794 5.68934 21.0607C5.97064 21.342 6.35217 21.5 6.75 21.5H17.25C17.6478 21.5 18.0294 21.342 18.3107 21.0607C18.592 20.7794 18.75 20.3978 18.75 20V12.5H20.6569C20.9376 12.5019 21.2135 12.4268 21.4545 12.2828C21.6955 12.1389 21.8924 11.9315 22.0237 11.6834L23.8303 8.2325C24.0121 7.88605 24.049 7.48165 23.933 7.10801C23.817 6.73437 23.5576 6.42198 23.2116 6.23938ZM3.34406 11C3.33021 11.0007 3.31657 10.9963 3.30562 10.9878L1.50844 7.55562L5.25 5.51375V11H3.34406ZM17.25 20H6.75V5H8.325C8.49804 5.84671 8.95821 6.60767 9.62769 7.15417C10.2972 7.70066 11.1349 7.99916 11.9991 7.99916C12.8633 7.99916 13.701 7.70066 14.3704 7.15417C15.0399 6.60767 15.5001 5.84671 15.6731 5H17.25V20ZM20.6953 10.9869C20.6901 10.9916 20.684 10.9951 20.6774 10.9974C20.6708 10.9996 20.6638 11.0005 20.6569 11H18.75V5.51375L22.4925 7.55562L20.6953 10.9869Z" fill="#142633"/>
</svg>
